G04 ================== begin FILE IDENTIFICATION RECORD ==================*
G04 Layout Name:  avrusb500_3.brd*
G04 Film Name:    Autosilk_t*
G04 File Format:  Gerber RS274X*
G04 File Origin:  Cadence Allegro 16.5-P002*
G04 Origin Date:  Fri Jul 19 13:53:07 2019*
G04 *
G04 Layer:  MANUFACTURING/AUTOSILK_TOP*
G04 *
G04 Offset:    (0.0000 0.0000)*
G04 Mirror:    No*
G04 Mode:      Positive*
G04 Rotation:  0*
G04 FullContactRelief:  No*
G04 UndefLineWidth:     0.0000*
G04 ================== end FILE IDENTIFICATION RECORD ====================*
%FSLAX55Y55*MOMM*%
%IR0*IPPOS*OFA0.00000B0.00000*MIA0B0*SFA1.00000B1.00000*%
%ADD10C,.203*%
%ADD11C,.254*%
G75*
%LPD*%
G75*
G54D10*
G01X539800Y1016000D02*
G03X825500Y730300I285700J0D01*
G01Y1301700D02*
G03X539800Y1016000I0J-285700D01*
G01X1111200D02*
G03X825500Y1301700I-285700J0D01*
G01Y730300D02*
G03X1111200Y1016000I0J285700D01*
G01X1270000Y381000D02*
X635000D01*
G01Y635000D02*
X1270000D01*
G01X635000Y508000D02*
Y635000D01*
G01Y381000D02*
Y508000D01*
G01D02*
X571500D01*
G01X889000Y3587700D02*
G03X603300Y3302000I0J-285700D01*
G01X889000Y3016300D02*
G03X1174700Y3302000I0J285700D01*
G01X603300D02*
G03X889000Y3016300I285700J0D01*
G01X1174700Y3302000D02*
G03X889000Y3587700I-285700J0D01*
G01X1270000Y508000D02*
Y381000D01*
G01Y635000D02*
Y508000D01*
G01D02*
X1333500D01*
G01X1619300Y1905000D02*
G03X1905000Y1619300I285700J0D01*
G01Y2190700D02*
G03X1619300Y1905000I0J-285700D01*
G01X1524000Y3048000D02*
Y3556000D01*
G01X2667000Y3048000D02*
X1524000D01*
G01Y3556000D02*
X2667000D01*
G01X2095500Y1079500D02*
Y1206500D01*
G01Y952500D02*
Y1079500D01*
G01X2730500Y952500D02*
X2095500D01*
G01Y1079500D02*
X2032000D01*
G01X1968500Y698500D02*
X2603500D01*
G01X1968500Y571500D02*
Y698500D01*
G01Y444500D02*
Y571500D01*
G01X2603500Y444500D02*
X1968500D01*
G01X2603500Y571500D02*
Y444500D01*
G01Y698500D02*
Y571500D01*
G01X1968500D02*
X1905000D01*
G01X2603500D02*
X2667000D01*
G01X1905000Y1619300D02*
G03X2190700Y1905000I0J285700D01*
G01X2095500Y1206500D02*
X2730500D01*
G01X2190700Y1905000D02*
G03X1905000Y2190700I-285700J0D01*
G01X2730500Y1079500D02*
Y952500D01*
G01Y1206500D02*
Y1079500D01*
G01D02*
X2794000D01*
G01X3683000Y3238500D02*
X3048000D01*
G01Y3365500D02*
Y3492500D01*
G01Y3238500D02*
Y3365500D01*
G01D02*
X2984500D01*
G01X2667000Y3556000D02*
Y3048000D01*
G01X3048000Y3492500D02*
X3683000D01*
G01X4445000Y508000D02*
X3810000D01*
G01Y762000D02*
X4445000D01*
G01X3810000Y635000D02*
Y762000D01*
G01Y508000D02*
Y635000D01*
G01D02*
X3746500D01*
G01X4445000Y889000D02*
X3810000D01*
G01Y1016000D02*
Y1143000D01*
G01Y889000D02*
Y1016000D01*
G01D02*
X3746500D01*
G01X3810000Y1143000D02*
X4445000D01*
G01X4381500Y2444700D02*
G03X4095800Y2159000I0J-285700D01*
G01D02*
G03X4381500Y1873300I285700J0D01*
G01X3683000Y3365500D02*
Y3238500D01*
G01Y3492500D02*
Y3365500D01*
G01D02*
X3746500D01*
G01X4445000Y635000D02*
Y508000D01*
G01Y762000D02*
Y635000D01*
G01D02*
X4508500D01*
G01X4445000Y1016000D02*
Y889000D01*
G01Y1143000D02*
Y1016000D01*
G01D02*
X4508500D01*
G01X4667200Y2159000D02*
G03X4381500Y2444700I-285700J0D01*
G01Y1873300D02*
G03X4667200Y2159000I0J285700D01*
G01X5524500Y2730500D02*
X4889500D01*
G01Y2984500D02*
X5524500D01*
G01X4889500Y2857500D02*
Y2984500D01*
G01Y2730500D02*
Y2857500D01*
G01D02*
X4826000D01*
G01X5143500Y3238500D02*
X4508500D01*
G01Y3365500D02*
Y3492500D01*
G01Y3238500D02*
Y3365500D01*
G01D02*
X4445000D01*
G01X4508500Y3492500D02*
X5143500D01*
G01X6159500Y1079500D02*
X5524500D01*
G01D02*
Y1206500D01*
G01Y1333500D02*
X6159500D01*
G01X5524500Y1206500D02*
Y1333500D01*
G01Y1206500D02*
X5461000D01*
G01X5905500Y1968500D02*
X5270500D01*
G01Y2222500D02*
X5905500D01*
G01X5270500Y2095500D02*
Y2222500D01*
G01Y1968500D02*
Y2095500D01*
G01D02*
X5207000D01*
G01X5524500Y2857500D02*
Y2730500D01*
G01Y2984500D02*
Y2857500D01*
G01D02*
X5588000D01*
G01X5143500Y3365500D02*
Y3238500D01*
G01Y3492500D02*
Y3365500D01*
G01D02*
X5207000D01*
G01X6159500Y1206500D02*
Y1079500D01*
G01Y1333500D02*
Y1206500D01*
G01D02*
X6223000D01*
G01X5905500Y2095500D02*
Y1968500D01*
G01Y2222500D02*
Y2095500D01*
G01D02*
X5969000D01*
G01X6985000Y2603500D02*
X6350000D01*
G01D02*
Y2730500D01*
G01Y2857500D02*
X6985000D01*
G01X6350000Y2730500D02*
Y2857500D01*
G01Y2730500D02*
X6286500D01*
G01X7024790Y1849680D02*
G03X7228930Y2001580I-71584J309325D01*
G01X6635800Y2159000D02*
G03X6829570Y1866570I317399J-98D01*
G01X6903500Y1845420D02*
G03X6944380Y1841620I49756J313477D01*
G01X6953200Y2476500D02*
G03X6635800Y2159000I0J-317400D01*
G01X7270700D02*
G03X6953200Y2476500I-317500J0D01*
G01X6985000Y2730500D02*
Y2603500D01*
G01Y2857500D02*
Y2730500D01*
G01D02*
X7048500D01*
G01X7556500Y412800D02*
G03X7842200Y698500I0J285700D01*
G01X7270800D02*
G03X7556500Y412800I285700J0D01*
G01Y984200D02*
G03X7270800Y698500I0J-285700D01*
G01X7842200D02*
G03X7556500Y984200I-285700J0D01*
G01X7257380Y2068010D02*
G03X7270700Y2159000I-304175J90998D01*
G01X7620000Y3524200D02*
G03X7334300Y3238500I0J-285700D01*
G01X7905700D02*
G03X7620000Y3524200I-285700J0D01*
G01Y2952800D02*
G03X7905700Y3238500I0J285700D01*
G01X7334300D02*
G03X7620000Y2952800I285700J0D01*
G01X8572500Y349300D02*
G03X8858200Y635000I0J285700D01*
G01X8286800D02*
G03X8572500Y349300I285700J0D01*
G01Y920700D02*
G03X8286800Y635000I0J-285700D01*
G01X8858200D02*
G03X8572500Y920700I-285700J0D01*
G01X8128000Y2667000D02*
Y2603500D01*
G01X8572500Y2667000D02*
Y2603500D01*
G01X8255000Y3302000D02*
Y2667000D01*
G01X8128000Y3302000D02*
X8255000D01*
G01X8001000D02*
X8128000D01*
G01X8001000Y2667000D02*
Y3302000D01*
G01X8128000Y2667000D02*
X8001000D01*
G01X8255000D02*
X8128000D01*
G01Y3302000D02*
Y3365500D01*
G01X8445500Y2667000D02*
Y3302000D01*
G01X8572500Y2667000D02*
X8445500D01*
G01X8699500D02*
X8572500D01*
G01X8699500Y3302000D02*
Y2667000D01*
G01X8572500Y3302000D02*
X8699500D01*
G01X8445500D02*
X8572500D01*
G01D02*
Y3365500D01*
G01X9683700Y635000D02*
G03X9398000Y920700I-285700J0D01*
G01Y349300D02*
G03X9683700Y635000I0J285700D01*
G01X9112300D02*
G03X9398000Y349300I285700J0D01*
G01Y920700D02*
G03X9112300Y635000I0J-285700D01*
G01X9715500Y1270000D02*
X9207500D01*
G01D02*
Y2413000D01*
G01X8953500Y2667000D02*
Y2603500D01*
G01X9207500Y2413000D02*
X9715500D01*
G01X9429800Y2921000D02*
G03X9715500Y2635300I285700J0D01*
G01Y3206700D02*
G03X9429800Y2921000I0J-285700D01*
G01X8826500Y2667000D02*
Y3302000D01*
G01X8953500Y2667000D02*
X8826500D01*
G01X9080500D02*
X8953500D01*
G01X9080500Y3302000D02*
Y2667000D01*
G01X8953500Y3302000D02*
X9080500D01*
G01X8826500D02*
X8953500D01*
G01D02*
Y3365500D01*
G01X10064800Y635000D02*
G03X10350500Y349300I285700J0D01*
G01Y920700D02*
G03X10064800Y635000I0J-285700D01*
G01X9715500Y2413000D02*
Y1270000D01*
G01Y2635300D02*
G03X10001200Y2921000I0J285700D01*
G01D02*
G03X9715500Y3206700I-285700J0D01*
G01X9588500Y3365500D02*
Y3492500D01*
G01X10223500Y3365500D02*
X9588500D01*
G01X10223500Y3492500D02*
Y3365500D01*
G01X9588500Y3619500D02*
X10223500D01*
G01X9588500Y3492500D02*
Y3619500D01*
G01X10223500D02*
Y3492500D01*
G01X9588500D02*
X9525000D01*
G01X10223500D02*
X10287000D01*
G01X10636200Y635000D02*
G03X10350500Y920700I-285700J0D01*
G01Y349300D02*
G03X10636200Y635000I0J285700D01*
G54D11*
G01X3498300Y2861300D02*
Y2718600D01*
G01X7741200Y1202700D02*
Y1345400D01*
M02*
