G04 ================== begin FILE IDENTIFICATION RECORD ==================*
G04 Layout Name:  avrusb500_3.brd*
G04 Film Name:    DillDraw*
G04 File Format:  Gerber RS274X*
G04 File Origin:  Cadence Allegro 16.5-P002*
G04 Origin Date:  Fri Jul 19 13:53:07 2019*
G04 *
G04 Layer:  MANUFACTURING/NCLEGEND-1-2*
G04 Layer:  BOARD GEOMETRY/OUTLINE*
G04 *
G04 Offset:    (0.0000 0.0000)*
G04 Mirror:    No*
G04 Mode:      Positive*
G04 Rotation:  0*
G04 FullContactRelief:  No*
G04 UndefLineWidth:     0.0000*
G04 ================== end FILE IDENTIFICATION RECORD ====================*
%FSLAX55Y55*MOMM*%
%IR0*IPPOS*OFA0.00000B0.00000*MIA0B0*SFA1.00000B1.00000*%
%AMMACRO13*
1,1,0.0,-.44995,.25005*
20,1,0.0,-.44995,.25005,.44995,.25005,0.0*
1,1,0.0,.44995,.25005*
20,1,0.0,.44995,.25005,.493371,.246251,0.0*
1,1,0.0,.493371,.246251*
20,1,0.0,.493371,.246251,.535472,.23497,0.0*
1,1,0.0,.535472,.23497*
20,1,0.0,.535472,.23497,.574975,.21655,0.0*
1,1,0.0,.574975,.21655*
20,1,0.0,.574975,.21655,.610679,.191549,0.0*
1,1,0.0,.610679,.191549*
20,1,0.0,.610679,.191549,.641499,.160729,0.0*
1,1,0.0,.641499,.160729*
20,1,0.0,.641499,.160729,.6665,.125025,0.0*
1,1,0.0,.6665,.125025*
20,1,0.0,.6665,.125025,.68492,.085522,0.0*
1,1,0.0,.68492,.085522*
20,1,0.0,.68492,.085522,.696201,.043421,0.0*
1,1,0.0,.696201,.043421*
20,1,0.0,.696201,.043421,.7,0.0,0.0*
1,1,0.0,.7,0.0*
20,1,0.0,.7,0.0,.696201,-.043421,0.0*
1,1,0.0,.696201,-.043421*
20,1,0.0,.696201,-.043421,.68492,-.085522,0.0*
1,1,0.0,.68492,-.085522*
20,1,0.0,.68492,-.085522,.6665,-.125025,0.0*
1,1,0.0,.6665,-.125025*
20,1,0.0,.6665,-.125025,.641499,-.160729,0.0*
1,1,0.0,.641499,-.160729*
20,1,0.0,.641499,-.160729,.610679,-.191549,0.0*
1,1,0.0,.610679,-.191549*
20,1,0.0,.610679,-.191549,.574975,-.21655,0.0*
1,1,0.0,.574975,-.21655*
20,1,0.0,.574975,-.21655,.535472,-.23497,0.0*
1,1,0.0,.535472,-.23497*
20,1,0.0,.535472,-.23497,.493371,-.246251,0.0*
1,1,0.0,.493371,-.246251*
20,1,0.0,.493371,-.246251,.44995,-.25005,0.0*
1,1,0.0,.44995,-.25005*
20,1,0.0,.44995,-.25005,-.44995,-.25005,0.0*
1,1,0.0,-.44995,-.25005*
20,1,0.0,-.44995,-.25005,-.493371,-.246251,0.0*
1,1,0.0,-.493371,-.246251*
20,1,0.0,-.493371,-.246251,-.535472,-.23497,0.0*
1,1,0.0,-.535472,-.23497*
20,1,0.0,-.535472,-.23497,-.574975,-.21655,0.0*
1,1,0.0,-.574975,-.21655*
20,1,0.0,-.574975,-.21655,-.610679,-.191549,0.0*
1,1,0.0,-.610679,-.191549*
20,1,0.0,-.610679,-.191549,-.641499,-.160729,0.0*
1,1,0.0,-.641499,-.160729*
20,1,0.0,-.641499,-.160729,-.6665,-.125025,0.0*
1,1,0.0,-.6665,-.125025*
20,1,0.0,-.6665,-.125025,-.68492,-.085522,0.0*
1,1,0.0,-.68492,-.085522*
20,1,0.0,-.68492,-.085522,-.696201,-.043421,0.0*
1,1,0.0,-.696201,-.043421*
20,1,0.0,-.696201,-.043421,-.7,0.0,0.0*
1,1,0.0,-.7,0.0*
20,1,0.0,-.7,0.0,-.696201,.043421,0.0*
1,1,0.0,-.696201,.043421*
20,1,0.0,-.696201,.043421,-.68492,.085522,0.0*
1,1,0.0,-.68492,.085522*
20,1,0.0,-.68492,.085522,-.6665,.125025,0.0*
1,1,0.0,-.6665,.125025*
20,1,0.0,-.6665,.125025,-.641499,.160729,0.0*
1,1,0.0,-.641499,.160729*
20,1,0.0,-.641499,.160729,-.610679,.191549,0.0*
1,1,0.0,-.610679,.191549*
20,1,0.0,-.610679,.191549,-.574975,.21655,0.0*
1,1,0.0,-.574975,.21655*
20,1,0.0,-.574975,.21655,-.535472,.23497,0.0*
1,1,0.0,-.535472,.23497*
20,1,0.0,-.535472,.23497,-.493371,.246251,0.0*
1,1,0.0,-.493371,.246251*
20,1,0.0,-.493371,.246251,-.44995,.25005,0.0*
1,1,0.0,-.44995,.25005*
%
%ADD13MACRO13*%
%AMMACRO10*
1,1,0.0,.635,0.0*
20,1,0.0,.635,0.0,.625353,-.110267,0.0*
1,1,0.0,.625353,-.110267*
20,1,0.0,.625353,-.110267,.596705,-.217183,0.0*
1,1,0.0,.596705,-.217183*
20,1,0.0,.596705,-.217183,.549926,-.3175,0.0*
1,1,0.0,.549926,-.3175*
20,1,0.0,.549926,-.3175,.486438,-.40817,0.0*
1,1,0.0,.486438,-.40817*
20,1,0.0,.486438,-.40817,.40817,-.486438,0.0*
1,1,0.0,.40817,-.486438*
20,1,0.0,.40817,-.486438,.3175,-.549926,0.0*
1,1,0.0,.3175,-.549926*
20,1,0.0,.3175,-.549926,.217183,-.596705,0.0*
1,1,0.0,.217183,-.596705*
20,1,0.0,.217183,-.596705,.110267,-.625353,0.0*
1,1,0.0,.110267,-.625353*
20,1,0.0,.110267,-.625353,0.0,-.635,0.0*
1,1,0.0,0.0,-.635*
20,1,0.0,0.0,-.635,-.110267,-.625353,0.0*
1,1,0.0,-.110267,-.625353*
20,1,0.0,-.110267,-.625353,-.217183,-.596705,0.0*
1,1,0.0,-.217183,-.596705*
20,1,0.0,-.217183,-.596705,-.3175,-.549926,0.0*
1,1,0.0,-.3175,-.549926*
20,1,0.0,-.3175,-.549926,-.40817,-.486438,0.0*
1,1,0.0,-.40817,-.486438*
20,1,0.0,-.40817,-.486438,-.486438,-.40817,0.0*
1,1,0.0,-.486438,-.40817*
20,1,0.0,-.486438,-.40817,-.549926,-.3175,0.0*
1,1,0.0,-.549926,-.3175*
20,1,0.0,-.549926,-.3175,-.596705,-.217183,0.0*
1,1,0.0,-.596705,-.217183*
20,1,0.0,-.596705,-.217183,-.625353,-.110267,0.0*
1,1,0.0,-.625353,-.110267*
20,1,0.0,-.625353,-.110267,-.635,0.0,0.0*
1,1,0.0,-.635,0.0*
20,1,0.0,-.635,0.0,-.625353,.110267,0.0*
1,1,0.0,-.625353,.110267*
20,1,0.0,-.625353,.110267,-.596705,.217183,0.0*
1,1,0.0,-.596705,.217183*
20,1,0.0,-.596705,.217183,-.549926,.3175,0.0*
1,1,0.0,-.549926,.3175*
20,1,0.0,-.549926,.3175,-.486438,.40817,0.0*
1,1,0.0,-.486438,.40817*
20,1,0.0,-.486438,.40817,-.40817,.486438,0.0*
1,1,0.0,-.40817,.486438*
20,1,0.0,-.40817,.486438,-.3175,.549926,0.0*
1,1,0.0,-.3175,.549926*
20,1,0.0,-.3175,.549926,-.217183,.596705,0.0*
1,1,0.0,-.217183,.596705*
20,1,0.0,-.217183,.596705,-.110267,.625353,0.0*
1,1,0.0,-.110267,.625353*
20,1,0.0,-.110267,.625353,0.0,.635,0.0*
1,1,0.0,0.0,.635*
20,1,0.0,0.0,.635,.110267,.625353,0.0*
1,1,0.0,.110267,.625353*
20,1,0.0,.110267,.625353,.217183,.596705,0.0*
1,1,0.0,.217183,.596705*
20,1,0.0,.217183,.596705,.3175,.549926,0.0*
1,1,0.0,.3175,.549926*
20,1,0.0,.3175,.549926,.40817,.486438,0.0*
1,1,0.0,.40817,.486438*
20,1,0.0,.40817,.486438,.486438,.40817,0.0*
1,1,0.0,.486438,.40817*
20,1,0.0,.486438,.40817,.549926,.3175,0.0*
1,1,0.0,.549926,.3175*
20,1,0.0,.549926,.3175,.596705,.217183,0.0*
1,1,0.0,.596705,.217183*
20,1,0.0,.596705,.217183,.625353,.110267,0.0*
1,1,0.0,.625353,.110267*
20,1,0.0,.625353,.110267,.635,0.0,0.0*
1,1,0.0,.635,0.0*
1,1,0.0,.3175,0.0*
20,1,0.0,.3175,0.0,-.3175,0.0,0.0*
1,1,0.0,-.3175,0.0*
1,1,0.0,0.0,.3175*
20,1,0.0,0.0,.3175,0.0,-.3175,0.0*
1,1,0.0,0.0,-.3175*
%
%ADD10MACRO10*%
%AMMACRO12*
1,1,0.0,.635,0.0*
20,1,0.0,.635,0.0,.3175,.549926,0.0*
1,1,0.0,.3175,.549926*
20,1,0.0,.3175,.549926,-.3175,.549926,0.0*
1,1,0.0,-.3175,.549926*
20,1,0.0,-.3175,.549926,-.635,0.0,0.0*
1,1,0.0,-.635,0.0*
20,1,0.0,-.635,0.0,-.3175,-.549926,0.0*
1,1,0.0,-.3175,-.549926*
20,1,0.0,-.3175,-.549926,.3175,-.549926,0.0*
1,1,0.0,.3175,-.549926*
20,1,0.0,.3175,-.549926,.635,0.0,0.0*
1,1,0.0,.635,0.0*
%
%ADD12MACRO12*%
%AMMACRO11*
1,1,0.0,.39345,0.0*
20,1,0.0,.39345,0.0,.387473,-.068322,0.0*
1,1,0.0,.387473,-.068322*
20,1,0.0,.387473,-.068322,.369722,-.134568,0.0*
1,1,0.0,.369722,-.134568*
20,1,0.0,.369722,-.134568,.340738,-.196725,0.0*
1,1,0.0,.340738,-.196725*
20,1,0.0,.340738,-.196725,.3014,-.252905,0.0*
1,1,0.0,.3014,-.252905*
20,1,0.0,.3014,-.252905,.252905,-.3014,0.0*
1,1,0.0,.252905,-.3014*
20,1,0.0,.252905,-.3014,.196725,-.340738,0.0*
1,1,0.0,.196725,-.340738*
20,1,0.0,.196725,-.340738,.134568,-.369722,0.0*
1,1,0.0,.134568,-.369722*
20,1,0.0,.134568,-.369722,.068322,-.387473,0.0*
1,1,0.0,.068322,-.387473*
20,1,0.0,.068322,-.387473,0.0,-.39345,0.0*
1,1,0.0,0.0,-.39345*
20,1,0.0,0.0,-.39345,-.068322,-.387473,0.0*
1,1,0.0,-.068322,-.387473*
20,1,0.0,-.068322,-.387473,-.134568,-.369722,0.0*
1,1,0.0,-.134568,-.369722*
20,1,0.0,-.134568,-.369722,-.196725,-.340738,0.0*
1,1,0.0,-.196725,-.340738*
20,1,0.0,-.196725,-.340738,-.252905,-.3014,0.0*
1,1,0.0,-.252905,-.3014*
20,1,0.0,-.252905,-.3014,-.3014,-.252905,0.0*
1,1,0.0,-.3014,-.252905*
20,1,0.0,-.3014,-.252905,-.340738,-.196725,0.0*
1,1,0.0,-.340738,-.196725*
20,1,0.0,-.340738,-.196725,-.369722,-.134568,0.0*
1,1,0.0,-.369722,-.134568*
20,1,0.0,-.369722,-.134568,-.387473,-.068322,0.0*
1,1,0.0,-.387473,-.068322*
20,1,0.0,-.387473,-.068322,-.39345,0.0,0.0*
1,1,0.0,-.39345,0.0*
20,1,0.0,-.39345,0.0,-.387473,.068322,0.0*
1,1,0.0,-.387473,.068322*
20,1,0.0,-.387473,.068322,-.369722,.134568,0.0*
1,1,0.0,-.369722,.134568*
20,1,0.0,-.369722,.134568,-.340738,.196725,0.0*
1,1,0.0,-.340738,.196725*
20,1,0.0,-.340738,.196725,-.3014,.252905,0.0*
1,1,0.0,-.3014,.252905*
20,1,0.0,-.3014,.252905,-.252905,.3014,0.0*
1,1,0.0,-.252905,.3014*
20,1,0.0,-.252905,.3014,-.196725,.340738,0.0*
1,1,0.0,-.196725,.340738*
20,1,0.0,-.196725,.340738,-.134568,.369722,0.0*
1,1,0.0,-.134568,.369722*
20,1,0.0,-.134568,.369722,-.068322,.387473,0.0*
1,1,0.0,-.068322,.387473*
20,1,0.0,-.068322,.387473,0.0,.39345,0.0*
1,1,0.0,0.0,.39345*
20,1,0.0,0.0,.39345,.068322,.387473,0.0*
1,1,0.0,.068322,.387473*
20,1,0.0,.068322,.387473,.134568,.369722,0.0*
1,1,0.0,.134568,.369722*
20,1,0.0,.134568,.369722,.196725,.340738,0.0*
1,1,0.0,.196725,.340738*
20,1,0.0,.196725,.340738,.252905,.3014,0.0*
1,1,0.0,.252905,.3014*
20,1,0.0,.252905,.3014,.3014,.252905,0.0*
1,1,0.0,.3014,.252905*
20,1,0.0,.3014,.252905,.340738,.196725,0.0*
1,1,0.0,.340738,.196725*
20,1,0.0,.340738,.196725,.369722,.134568,0.0*
1,1,0.0,.369722,.134568*
20,1,0.0,.369722,.134568,.387473,.068322,0.0*
1,1,0.0,.387473,.068322*
20,1,0.0,.387473,.068322,.39345,0.0,0.0*
1,1,0.0,.39345,0.0*
1,1,0.0,-.1639,-.1967*
20,1,0.0,-.1639,-.1967,0.0,.1967,0.0*
1,1,0.0,0.0,.1967*
20,1,0.0,0.0,.1967,.1639,-.1967,0.0*
1,1,0.0,.1639,-.1967*
1,1,0.0,.1049,-.059*
20,1,0.0,.1049,-.059,-.1049,-.059,0.0*
1,1,0.0,-.1049,-.059*
%
%ADD11MACRO11*%
%LPD*%
G75*
G54D10*
X203200Y-1283730D03*
X2541520Y2631370D03*
X2857500Y1778000D03*
X2984500Y2413000D03*
X3302000Y2558980D03*
X3189000Y2076480D03*
X3109000D03*
X3029000Y2177680D03*
X2868900Y3163600D03*
X2984500Y3048000D03*
X2794000D03*
X4045140Y2008140D03*
X3492500Y2159000D03*
X3937000Y2603500D03*
X4508500Y1587500D03*
X4358510Y2364210D03*
X4472610Y2925930D03*
X5080000Y2585740D03*
X6985000Y1841500D03*
X6862930Y1843390D03*
X7226100Y2042100D03*
X7970500Y1452680D03*
X7429500Y1189480D03*
X7970500Y1655080D03*
X7493000Y1778000D03*
X7419400Y2042100D03*
X8290600Y1586650D03*
X8370600Y1655080D03*
X8130500Y1936920D03*
X8128000Y3062790D03*
X8968530Y1775000D03*
G54D11*
X203200Y-1474230D03*
X825500Y889000D03*
Y1143000D03*
X444500Y508000D03*
X762000Y3302000D03*
X1016000D03*
X1460500Y508000D03*
X1905000Y1079500D03*
X1778000Y571500D03*
Y1905000D03*
X1714500Y3302000D03*
X2032000Y1905000D03*
X2476500Y3302000D03*
X2921000Y1079500D03*
X2794000Y571500D03*
X2857500Y3365500D03*
X3619500Y635000D03*
Y1016000D03*
X3873500Y3365500D03*
X4635500Y635000D03*
Y1016000D03*
X4254500Y2159000D03*
X4508500D03*
X4699000Y2857500D03*
X4318000Y3365500D03*
X5334000Y1206500D03*
X5080000Y2095500D03*
X5715000Y2857500D03*
X5334000Y3365500D03*
X6350000Y1206500D03*
X6096000Y2095500D03*
X6159500Y2730500D03*
X6794500Y2159000D03*
X7112000D03*
X7175500Y2730500D03*
X7683500Y698500D03*
X7429500D03*
X7493000Y3238500D03*
X7747000D03*
X8699500Y635000D03*
X8445500D03*
X8128000Y2476500D03*
X8572500D03*
X8128000Y3492500D03*
X8572500D03*
X9398000Y762000D03*
Y508000D03*
X9461500Y1460500D03*
X8953500Y2476500D03*
X9461500Y2222500D03*
X8953500Y3492500D03*
X9398000D03*
X9842500Y2921000D03*
X9588500D03*
X10350500Y762000D03*
Y508000D03*
X10414000Y3492500D03*
G54D12*
X203200Y-1664730D03*
X508000Y1905000D03*
Y1651000D03*
Y2667000D03*
Y2413000D03*
Y2159000D03*
X3302000Y1079500D03*
Y825500D03*
Y571500D03*
Y1587500D03*
Y1333500D03*
X5588000Y571500D03*
X5334000D03*
X6350000D03*
X6096000D03*
X5842000D03*
G54D13*
X203200Y-1855230D03*
X10107500Y1355000D03*
Y2475000D03*
X10477500Y1355000D03*
Y2475000D03*
M02*
