G04 ================== begin FILE IDENTIFICATION RECORD ==================*
G04 Layout Name:  avrusb500_3.brd*
G04 Film Name:    Past_b*
G04 File Format:  Gerber RS274X*
G04 File Origin:  Cadence Allegro 16.5-P002*
G04 Origin Date:  Fri Jul 19 13:51:19 2019*
G04 *
G04 Layer:  VIA CLASS/BOTTOM*
G04 Layer:  PIN/BOTTOM*
G04 Layer:  ETCH/BOTTOM*
G04 *
G04 Offset:    (0.0000 0.0000)*
G04 Mirror:    No*
G04 Mode:      Positive*
G04 Rotation:  0*
G04 FullContactRelief:  No*
G04 UndefLineWidth:     0.0000*
G04 ================== end FILE IDENTIFICATION RECORD ====================*
%FSLAX55Y55*MOMM*%
%IR0*IPPOS*OFA0.00000B0.00000*MIA0B0*SFA1.00000B1.00000*%
%ADD14O,1.8999X1.1999*%
%ADD13C,.6096*%
%ADD11C,1.3211*%
%ADD12C,1.524*%
%ADD10R,1.3211X1.3211*%
%ADD15C,.254*%
%ADD16C,.381*%
%ADD21C,.864*%
%ADD17O,2.1544X1.4544*%
%ADD19C,1.5756*%
%ADD20C,1.7784*%
%ADD18R,1.5756X1.5756*%
G75*
%LPD*%
G75*
G36*
G01X431820Y2605510D02*
G02X440740Y2608830I5078J-1D01*
G03X566170Y2734260I67260J58170D01*
G01X565320Y2734990D01*
X564410Y2736990D01*
Y2738100D01*
G02X569490Y2743180I5080J0D01*
G01X578890D01*
X995680Y3159970D01*
X1000250D01*
X1086740Y3073480D01*
X2339450D01*
X2425890Y3159920D01*
X2535360D01*
X2618580Y3243140D01*
Y3352610D01*
X2697510Y3431540D01*
X2788310D01*
G02X2796210Y3415000I-5J-10159D01*
G03X2781080Y3346340I61288J-49503D01*
G02X2779750Y3341520I-4926J-1234D01*
G01X2692480Y3254250D01*
Y3097100D01*
X2687500Y3092120D01*
Y3003880D01*
X2692480Y2998900D01*
Y2460430D01*
X2987590Y2165320D01*
X2987960Y2164180D01*
G03X3054760Y2143000I41038J13500D01*
G02X3070980Y2134850I6060J-8155D01*
G01Y2096990D01*
G03X3141380Y2047890I38023J-20503D01*
G02X3156620I7620J-6727D01*
G03X3227020Y2096990I32377J28597D01*
G01Y2700150D01*
X3346350Y2819480D01*
X4302250D01*
X4380740Y2740990D01*
X4544800D01*
X4623290Y2819480D01*
X4628410D01*
X4630730Y2818170D01*
X4631420Y2817010D01*
G03Y2897990I67580J40490D01*
G02X4627060Y2895520I-4358J2610D01*
G01X4605080D01*
G02X4601490Y2904190I3J5080D01*
G01X4607480Y2910180D01*
Y3127250D01*
X4485410Y3249320D01*
Y3251860D01*
X4394800Y3342470D01*
X4394090Y3345040D01*
X4394420Y3346340D01*
G03X4337160Y3289080I-76420J19160D01*
G02X4341980Y3287750I1234J-4926D01*
G01X4409370Y3220360D01*
Y3217820D01*
X4531440Y3095750D01*
Y2941680D01*
X4529040Y2939280D01*
G02X4512480Y2942560I-7181J7187D01*
G03X4486110Y2966970I-39873J-16626D01*
G01X4484970Y2967340D01*
X3843580Y3608730D01*
X1967460D01*
X1737530Y3378800D01*
X1734960Y3378090D01*
X1733660Y3378420D01*
G03X1790920Y3321160I-19160J-76420D01*
G01X1790590Y3322460D01*
X1791300Y3325030D01*
X1998960Y3532690D01*
X2537430D01*
G02X2544620Y3515350I3J-10160D01*
G01X2438480Y3409210D01*
Y3373940D01*
G02X2436010Y3369580I-5080J-2D01*
G03X2415210Y3252500I40489J-67581D01*
G02X2407310Y3235960I-7905J-6381D01*
G01X2394390D01*
X2307950Y3149520D01*
X1118240D01*
X1054020Y3213740D01*
Y3230060D01*
G02X1056490Y3234420I5080J2D01*
G03X960210Y3246380I-40488J67580D01*
G02X960200Y3232020I-7197J-7175D01*
G01X547390Y2819220D01*
X444940D01*
X355780Y2730060D01*
Y2627610D01*
X317350Y2589180D01*
G02X300010Y2596370I-7180J7187D01*
G01Y3694910D01*
G02X305090Y3699990I5080J0D01*
G01X10694910D01*
G02X10699990Y3694910I0J-5080D01*
G01Y305090D01*
G02X10694910Y300010I-5080J0D01*
G01X305090D01*
G02X300010Y305090I0J5080D01*
G01Y574190D01*
G02X317350Y581380I10160J3D01*
G01X366750Y531980D01*
G02X368080Y527160I-3596J-3586D01*
G03X425340Y584420I76420J-19160D01*
G02X420520Y585750I-1234J4926D01*
G01X378510Y627760D01*
Y2232560D01*
X377270Y2233800D01*
Y2541550D01*
X378510Y2542790D01*
Y2542800D01*
X431820Y2596110D01*
Y2605510D01*
G37*
G36*
G01X3062700Y2204710D02*
G03X3042500Y2218720I-33703J-27027D01*
G01X3041360Y2219090D01*
X2768520Y2491930D01*
Y2996890D01*
G02X2781600Y3006620I10161J-2D01*
G03X2814510Y3009980I12402J41381D01*
G01X2963990D01*
G03X3002750Y3008850I20505J38021D01*
G01X3003770Y3009320D01*
X3004900D01*
G02X3009980Y3004240I0J-5080D01*
G01Y3000250D01*
X2894120Y2884380D01*
G03X2947880Y2830620I26880J-26880D01*
G01X3028040Y2910770D01*
G02X3045380Y2903580I7180J-7187D01*
G01Y2900600D01*
G02X3040300Y2895520I-5080J0D01*
G01X3032250D01*
X2946480Y2809750D01*
Y2433510D01*
G03X3022520I38020J-20510D01*
G01Y2778250D01*
X3058090Y2813820D01*
G02X3064240Y2814620I3594J-3589D01*
G03X3076610Y2810050I19161J32839D01*
G01X3078430Y2809720D01*
X3080780Y2806900D01*
Y2211070D01*
G02X3062700Y2204710I-10160J3D01*
G37*
G36*
G01X2768520Y3222750D02*
X2834470Y3288700D01*
X2837040Y3289410D01*
X2838340Y3289080D01*
G03X2914770Y3311400I19158J76418D01*
G02X2923540Y3307910I3691J-3489D01*
G01Y3306640D01*
X3009980Y3220200D01*
Y3099110D01*
G02X2996900Y3089380I-10161J2D01*
G03X2963990Y3086020I-12402J-41381D01*
G01X2814510D01*
G03X2781600Y3089380I-20508J-38021D01*
G02X2768520Y3099110I-2919J9732D01*
G01Y3222750D01*
G37*
G36*
G01X4392590Y2895470D02*
X4379460Y2908600D01*
Y2913310D01*
X4108590Y3184180D01*
X3234850D01*
X3143740Y3093070D01*
G02X3126400Y3100260I-7180J7187D01*
G01Y3106790D01*
X3121420Y3111770D01*
Y3266380D01*
X3089560Y3298230D01*
G03X3089070Y3298720I-27125J-26635D01*
G01X3089040Y3298750D01*
X3067960Y3319830D01*
Y3406050D01*
X2958660Y3515350D01*
G02X2965850Y3532690I7187J7180D01*
G01X3812080D01*
X3883180Y3461590D01*
G02X3875710Y3444250I-7183J-7185D01*
G03X3952250Y3367710I-2210J-78750D01*
G02X3969590Y3375180I10155J287D01*
G01X4431200Y2913570D01*
X4431570Y2912430D01*
G03X4432660Y2909500I41007J13588D01*
G02X4423260Y2895470I-9396J-3869D01*
G01X4392590D01*
G37*
G36*
G01X3156820Y2762020D02*
Y2969560D01*
X3161800Y2974540D01*
Y3003590D01*
X3266350Y3108140D01*
X4077090D01*
X4272370Y2912860D01*
G02X4265180Y2895520I-7187J-7180D01*
G01X3314850D01*
X3174160Y2754830D01*
G02X3156820Y2762020I-7180J7187D01*
G37*
%LPC*%
G75*
G36*
G01X8166020Y3420560D02*
Y3083300D01*
G02X8089980I-38020J-20510D01*
G01Y3420560D01*
G03X8087510Y3424920I-5080J2D01*
G02X8168490I40490J67580D01*
G03X8166020Y3420560I2610J-4358D01*
G37*
G36*
G01X9480660Y2298920D02*
G03X9485480Y2300250I1234J4926D01*
G01X9550480Y2365250D01*
Y2849060D01*
G03X9548010Y2853420I-5080J2D01*
G02X9628990I40490J67580D01*
G03X9626520Y2849060I2610J-4358D01*
G01Y2333750D01*
X9538300Y2245530D01*
X9537590Y2242960D01*
X9537920Y2241660D01*
G02X9480660Y2298920I-76420J-19160D01*
G37*
G36*
G01X5118020Y2565230D02*
Y2167440D01*
G03X5120490Y2163080I5080J-2D01*
G02X5039510I-40490J-67580D01*
G03X5041980Y2167440I-2610J4358D01*
G01Y2565230D01*
G02X5118020I38020J20510D01*
G37*
G36*
G01X8393840Y1813020D02*
X8948020D01*
G02Y1736980I20510J-38020D01*
G01X8312720D01*
Y2433400D01*
G03X8307640Y2438480I-5080J0D01*
G01X8199940D01*
G03X8195580Y2436010I-2J-5080D01*
G02Y2516990I-67580J40490D01*
G03X8199940Y2514520I4358J2610D01*
G01X8388760D01*
Y1818100D01*
G03X8393840Y1813020I5080J0D01*
G37*
G36*
G01X535050Y1566290D02*
G02X592710Y1623950I-27050J84710D01*
G03X593950Y1618810I4838J-1553D01*
G01X777750Y1435020D01*
X1473450D01*
X1790950Y1117520D01*
X1833060D01*
G03X1837420Y1119990I2J5080D01*
G02Y1039010I67580J-40490D01*
G03X1833060Y1041480I-4358J-2610D01*
G01X1759450D01*
X1441950Y1358980D01*
X746250D01*
X540190Y1565050D01*
G03X535050Y1566290I-3587J-3598D01*
G37*
G36*
G01X9320160Y3480360D02*
G02X9385860Y3414660I77840J12140D01*
G03X9381480Y3413230I-785J-5018D01*
G01X9251870Y3283620D01*
Y970880D01*
X9381970Y840780D01*
X9476780D01*
Y683220D01*
X9319220D01*
Y778030D01*
X9163130Y934120D01*
Y3320380D01*
X9318730Y3475980D01*
G03X9320160Y3480360I-3588J3595D01*
G37*
G36*
G01X2051160Y1828580D02*
G02X1991510Y1972580I-19166J76415D01*
G03X1993980Y1976940I-2610J4358D01*
G01Y2369900D01*
G03X1988900Y2374980I-5080J0D01*
G01X591540D01*
G03X587020Y2372230I-5J-5081D01*
G02Y2453770I-79020J40770D01*
G03X591540Y2451020I4515J2331D01*
G01X2070020D01*
Y1976940D01*
G03X2072490Y1972580I5080J-2D01*
G02X2108420Y1885840I-40487J-67583D01*
G03X2109750Y1881020I4926J-1234D01*
G01X2492250Y1498520D01*
X3100910D01*
X3113710Y1511320D01*
X3228120D01*
G03X3235700Y1528250I2J10161D01*
G02X3322740Y1673970I66302J59252D01*
G03X3335270Y1683850I2371J9879D01*
G01Y2521260D01*
X4861110D01*
G03X4866190Y2526340I0J5080D01*
G01Y2895520D01*
X5643060D01*
G03X5647420Y2897990I2J5080D01*
G02Y2817010I67580J-40490D01*
G03X5643060Y2819480I-4358J-2610D01*
G01X4947310D01*
G03X4942230Y2814400I0J-5080D01*
G01Y2445220D01*
X3416390D01*
G03X3411310Y2440140I0J-5080D01*
G01Y2187970D01*
G03X3428650Y2180780I10160J-2D01*
G01X3461440Y2213570D01*
X3482300D01*
G02X3513670Y2200570I-7J-44367D01*
G01X3523870Y2190370D01*
G02X3495550Y2114740I-31374J-31369D01*
G03X3486090Y2104600I702J-10137D01*
G01Y2022280D01*
X3495500Y2012870D01*
X3881290D01*
X3995760Y2127340D01*
X4056080D01*
X4132110Y2203370D01*
X4170640D01*
G03X4175720Y2208450I0J5080D01*
G01Y2237780D01*
X4315410D01*
G03X4320490Y2242860I0J5080D01*
G01Y2343700D01*
G02X4396530I38020J20510D01*
G01Y2256600D01*
X4396580Y2256550D01*
Y2061450D01*
X4396530Y2061400D01*
Y1739260D01*
X3697250Y1039980D01*
G03X3695920Y1035160I3596J-3586D01*
G02X3570050Y954670I-76417J-19163D01*
G03X3553510Y946770I-6381J-7905D01*
G01Y754760D01*
X3595520Y712750D01*
G03X3600340Y711420I3586J3596D01*
G02X3543080Y654160I19160J-76420D01*
G01X3543410Y655460D01*
X3542700Y658030D01*
X3477470Y723260D01*
Y957090D01*
X3477420Y957140D01*
Y1074860D01*
X3477470Y1074910D01*
Y1290400D01*
G03X3472390Y1295480I-5080J0D01*
G01X3385540D01*
G03X3381020Y1292730I-5J-5081D01*
G02Y1374270I-79020J40770D01*
G03X3385540Y1371520I4515J2331D01*
G01X3871180D01*
X4007120Y1507460D01*
Y1987630D01*
G02X4005270Y1991510I38021J20509D01*
G03X3988710Y1994790I-9379J-3907D01*
G01X3918050Y1924130D01*
X3458740D01*
X3428650Y1954220D01*
G03X3411310Y1947030I-7180J-7188D01*
G01Y1693480D01*
X3454220Y1650560D01*
Y1524440D01*
X3365060Y1435280D01*
X3145210D01*
X3132410Y1422480D01*
X2460750D01*
X2055980Y1827250D01*
G03X2051160Y1828580I-3586J-3596D01*
G37*
G36*
G01X6171640Y2808340D02*
G03X6176020Y2809770I785J5018D01*
G01X6268120Y2901870D01*
X7443550D01*
G03X7448630Y2906950I0J5080D01*
G01Y3154640D01*
G03X7443550Y3159720I-5080J0D01*
G01X7414220D01*
Y3317280D01*
X7571780D01*
Y3159720D01*
X7542450D01*
G03X7537370Y3154640I0J-5080D01*
G01Y2090890D01*
X7646970Y1981290D01*
X8130500D01*
G02Y1892550I0J-44370D01*
G01X7610210D01*
X7475280Y2027480D01*
G03X7458830Y2024440I-7177J-7189D01*
G02X7457420Y2021590I-39401J17719D01*
G01Y1867350D01*
X7505360Y1819410D01*
X7506500Y1819040D01*
G02X7451960Y1764500I-13500J-41040D01*
G01X7451590Y1765640D01*
X7381380Y1835850D01*
Y2021590D01*
G02X7434840Y2082450I38020J20512D01*
G03X7448630Y2091940I3631J9488D01*
G01Y2808050D01*
G03X7443550Y2813130I-5080J0D01*
G01X7227060D01*
G03X7221170Y2794690I-1J-10160D01*
G02X7215990Y2662920I-45670J-64191D01*
G03X7213520Y2658560I2610J-4358D01*
G01Y2508510D01*
G03X7218600Y2503430I5080J0D01*
G01X7264120D01*
Y2062610D01*
G02X7188080I-38020J-20510D01*
G01Y2099290D01*
G03X7170390Y2106110I-10159J2D01*
G02X7109750Y2080250I-58389J52890D01*
G03X7106020Y2078770I-144J-5077D01*
G01X7104520Y2077270D01*
Y2073070D01*
X7106910Y2070690D01*
Y2027360D01*
X7509600Y1624670D01*
X7957830D01*
X7957880Y1624620D01*
X7983120D01*
X7983170Y1624670D01*
X8270090D01*
G02Y1548630I20510J-38020D01*
G01X8014670D01*
X8014620Y1548580D01*
X7926380D01*
X7926330Y1548630D01*
X7478100D01*
X7144240Y1882490D01*
G03X7126900Y1875300I-7180J-7187D01*
G01Y1782710D01*
X7088410Y1744220D01*
Y1743240D01*
X7340950Y1490700D01*
X7949990D01*
G02Y1414660I20510J-38020D01*
G01X7369960D01*
G03X7362770Y1397320I-3J-10160D01*
G01X7464160Y1295930D01*
X7965340D01*
X8483520Y777750D01*
Y706940D01*
G03X8485990Y702580I5080J-2D01*
G02X8405010I-40490J-67580D01*
G03X8407480Y706940I-2610J4358D01*
G01Y746250D01*
X7933840Y1219890D01*
X7478870D01*
G03X7469470Y1205870I-2J-10160D01*
G02X7467520Y1168970I-39970J-16389D01*
G01Y770440D01*
G03X7469990Y766080I5080J-2D01*
G02X7389010I-40490J-67580D01*
G03X7391480Y770440I-2610J4358D01*
G01Y1168970D01*
G02X7407730Y1226790I38020J20508D01*
G03X7409800Y1242750I-5117J8778D01*
G01X6961770Y1690780D01*
Y1739970D01*
G03X6944430Y1747160I-10160J3D01*
G01X6934210Y1736940D01*
X6891230D01*
X6891180Y1736890D01*
X6837600D01*
G03X6832520Y1731810I0J-5080D01*
G01Y492250D01*
X6683250Y342980D01*
X2968750D01*
X2817030Y494700D01*
X2814460Y495410D01*
X2813160Y495080D01*
G02X2870420Y552340I-19160J76420D01*
G01X2870090Y551040D01*
X2870800Y548470D01*
X3000250Y419020D01*
X6651750D01*
X6756480Y523750D01*
Y1723810D01*
X6721080Y1759210D01*
Y1763130D01*
X6705880Y1778330D01*
Y1908450D01*
X6756480Y1959050D01*
Y2075140D01*
G03X6751400Y2080220I-5080J0D01*
G01X6715720D01*
Y2187710D01*
G03X6698380Y2194890I-10158J-3D01*
G01X6624470Y2120980D01*
X6302250D01*
X6238030Y2056760D01*
Y2011140D01*
X6180360Y1953470D01*
X6134740D01*
X5410800Y1229530D01*
X5410090Y1226960D01*
X5410420Y1225660D01*
G02X5342390Y1128170I-76417J-19157D01*
G03X5336290Y1110880I1081J-10103D01*
G01X5486170Y961000D01*
Y669900D01*
X5418940Y602670D01*
X5418270Y599920D01*
X5418710Y598550D01*
G02X5361050Y656210I-84710J-27050D01*
G03X5366190Y657450I1553J4838D01*
G01X5410130Y701400D01*
Y929500D01*
X5275210Y1064420D01*
X5275140D01*
X5191920Y1147640D01*
Y1265360D01*
X5191970Y1265410D01*
Y1290860D01*
X5249640Y1348530D01*
X5275090D01*
X5275140Y1348580D01*
X5350750D01*
X5410130Y1407960D01*
Y1908850D01*
X5634800Y2133520D01*
X6024060D01*
G03X6028420Y2135990I2J5080D01*
G02X6171300Y2118660I67580J-40489D01*
G03X6188190Y2114460I9710J2987D01*
G01X6270750Y2197020D01*
X6592970D01*
X6652420Y2256470D01*
Y2256550D01*
X6696950Y2301080D01*
X6892050D01*
X6936580Y2256550D01*
Y2241090D01*
X7016380Y2161290D01*
G03X7033670Y2167390I7187J7181D01*
G02X7170390Y2211890I78332J-8389D01*
G03X7188080Y2218710I7531J6818D01*
G01Y2422310D01*
G03X7183000Y2427390I-5080J0D01*
G01X7137480D01*
Y2658560D01*
G03X7135010Y2662920I-5080J2D01*
G02X7129830Y2794690I40490J67579D01*
G03X7123940Y2813130I-5889J8280D01*
G01X6304880D01*
X6238770Y2747020D01*
G03X6237340Y2742640I3588J-3595D01*
G02X6171640Y2808340I-77840J-12140D01*
G37*
G54D21*
X2868900Y3163600D03*
G54D17*
X10477500Y2475000D03*
Y1355000D03*
X10107500Y2475000D03*
Y1355000D03*
G54D19*
X825500Y1143000D03*
X1778000Y571500D03*
X1460500Y508000D03*
X2921000Y1079500D03*
X4635500Y1016000D03*
Y635000D03*
X4508500Y2159000D03*
X5334000Y3365500D03*
X6350000Y1206500D03*
X7747000Y3238500D03*
X8572500Y2476500D03*
Y3492500D03*
X9398000Y508000D03*
X9461500Y1460500D03*
X8953500Y2476500D03*
Y3492500D03*
X10350500Y508000D03*
X10414000Y3492500D03*
G54D20*
X508000Y1905000D03*
Y2159000D03*
X3302000Y1079500D03*
Y825500D03*
Y571500D03*
X5588000D03*
X5842000D03*
X6096000D03*
X6350000D03*
G54D18*
X825500Y889000D03*
X762000Y3302000D03*
X1778000Y1905000D03*
X7683500Y698500D03*
X8699500Y635000D03*
X9842500Y2921000D03*
X10350500Y762000D03*
%LPD*%
G75*
G36*
G01X3643480Y1093750D02*
G02X3638660Y1092420I-3586J3596D01*
G03X3570050Y1077330I-19157J-76418D01*
G02X3553510Y1085230I-6381J7905D01*
G01Y1290400D01*
G02X3558590Y1295480I5080J0D01*
G01X3820680D01*
G02X3827870Y1278140I3J-10160D01*
G01X3643480Y1093750D01*
G37*
G36*
G01X4083160Y1557960D02*
Y1987630D01*
G03X4085090Y2024570I-38021J20507D01*
G02X4092680Y2038440I9396J3870D01*
G01X4158380Y2104140D01*
G02X4175730Y2096960I7189J-7182D01*
G01Y2080220D01*
X4315410D01*
G02X4320490Y2075140I0J-5080D01*
G01Y1770760D01*
X4100500Y1550770D01*
G02X4083160Y1557960I-7180J7187D01*
G37*
G36*
G01X6077040Y2003310D02*
X5503510Y1429780D01*
G02X5486170Y1436970I-7180J7187D01*
G01Y1877350D01*
X5666300Y2057480D01*
X6024060D01*
G02X6028420Y2055010I2J-5080D01*
G03X6072840Y2020200I67580J40490D01*
G02X6077040Y2003310I-2987J-9710D01*
G37*
G36*
G01X6832520Y1954970D02*
Y2075140D01*
G02X6837600Y2080220I5080J0D01*
G01X6873280D01*
Y2172330D01*
G02X6890620Y2179510I10158J-3D01*
G01X6969920Y2100210D01*
Y2100140D01*
X7030870Y2039190D01*
Y1995860D01*
X7034660Y1992070D01*
G02X7031070Y1983400I-3593J-3590D01*
G01X6926210D01*
X6892700Y1949890D01*
X6837600D01*
G02X6832520Y1954970I0J5080D01*
G37*
G54D10*
X825500Y889000D03*
X762000Y3302000D03*
X1778000Y1905000D03*
X4254500Y2159000D03*
X6794500D03*
X7683500Y698500D03*
X7493000Y3238500D03*
X8699500Y635000D03*
X9398000Y762000D03*
X9842500Y2921000D03*
X10350500Y762000D03*
G54D11*
X825500Y1143000D03*
X444500Y508000D03*
X1016000Y3302000D03*
X1460500Y508000D03*
X1905000Y1079500D03*
X1778000Y571500D03*
X1714500Y3302000D03*
X2032000Y1905000D03*
X2476500Y3302000D03*
X2921000Y1079500D03*
X2794000Y571500D03*
X2857500Y3365500D03*
X3619500Y635000D03*
Y1016000D03*
X3873500Y3365500D03*
X4635500Y635000D03*
Y1016000D03*
X4508500Y2159000D03*
X4699000Y2857500D03*
X4318000Y3365500D03*
X5334000Y1206500D03*
X5080000Y2095500D03*
X5715000Y2857500D03*
X5334000Y3365500D03*
X6350000Y1206500D03*
X6096000Y2095500D03*
X6159500Y2730500D03*
X7112000Y2159000D03*
X7175500Y2730500D03*
X7429500Y698500D03*
X7747000Y3238500D03*
X8445500Y635000D03*
X8128000Y2476500D03*
X8572500D03*
X8128000Y3492500D03*
X8572500D03*
X9398000Y508000D03*
X9461500Y1460500D03*
X8953500Y2476500D03*
X9461500Y2222500D03*
X8953500Y3492500D03*
X9398000D03*
X9588500Y2921000D03*
X10350500Y508000D03*
X10414000Y3492500D03*
G54D12*
X508000Y1905000D03*
Y1651000D03*
Y2667000D03*
Y2413000D03*
Y2159000D03*
X3302000Y1079500D03*
Y825500D03*
Y571500D03*
Y1587500D03*
Y1333500D03*
X5588000Y571500D03*
X5334000D03*
X6350000D03*
X6096000D03*
X5842000D03*
G54D13*
X2541520Y2631370D03*
X2857500Y1778000D03*
X2984500Y2413000D03*
X3302000Y2558980D03*
X3189000Y2076480D03*
X3109000D03*
X3029000Y2177680D03*
X2868900Y3163600D03*
X2984500Y3048000D03*
X2794000D03*
X4045140Y2008140D03*
X3492500Y2159000D03*
X3937000Y2603500D03*
X4508500Y1587500D03*
X4358510Y2364210D03*
X4472610Y2925930D03*
X5080000Y2585740D03*
X6985000Y1841500D03*
X6862930Y1843390D03*
X7226100Y2042100D03*
X7970500Y1452680D03*
X7429500Y1189480D03*
X7970500Y1655080D03*
X7493000Y1778000D03*
X7419400Y2042100D03*
X8290600Y1586650D03*
X8370600Y1655080D03*
X8130500Y1936920D03*
X8128000Y3062790D03*
X8968530Y1775000D03*
G54D14*
X10107500Y1355000D03*
Y2475000D03*
X10477500Y1355000D03*
Y2475000D03*
G54D15*
G01X444500Y508000D02*
X340490Y612010D01*
Y2216810D01*
X339250Y2218050D01*
Y2557300D01*
X340490Y2558540D01*
Y2558550D01*
X393800Y2611860D01*
Y2714310D01*
X460690Y2781200D01*
X563140D01*
X979930Y3197990D01*
X1016000D01*
G01X1905000Y1079500D02*
X1775200D01*
X1457700Y1397000D01*
X762000D01*
X508000Y1651000D01*
G01Y2413000D02*
X2032000D01*
Y1905000D01*
G01X2921000Y2857500D02*
X3048000Y2984500D01*
Y3014650D01*
X3052980Y3019630D01*
Y3076370D01*
X3048000Y3081350D01*
Y3235950D01*
X2961560Y3322390D01*
Y3408610D01*
X2900610Y3469560D01*
X2681760D01*
X2580560Y3368360D01*
Y3258890D01*
X2519610Y3197940D01*
X2410140D01*
X2323700Y3111500D01*
X1102490D01*
X1016000Y3197990D01*
G01D02*
Y3302000D01*
G01X4472610Y2925930D02*
X3827830Y3570710D01*
X1983210D01*
X1714500Y3302000D01*
G01X2032000Y1905000D02*
X2476500Y1460500D01*
X3116660D01*
X3129460Y1473300D01*
X3349310D01*
X3416200Y1540190D01*
Y1634810D01*
X3373290Y1677730D01*
Y2483240D01*
X4904210D01*
Y2857500D01*
X5715000D01*
G01X2476500Y3302000D02*
Y3393460D01*
X2603150Y3520110D01*
X2900130D01*
X3029940Y3390300D01*
Y3304080D01*
X3062670Y3271350D01*
X3062680D01*
X3083400Y3250630D01*
Y3096020D01*
X3088380Y3091040D01*
Y3004960D01*
X3083400Y2999980D01*
Y2847460D01*
X3073360Y2857500D01*
X3048000D01*
X2984500Y2794000D01*
Y2413000D01*
G01X6794500Y2159000D02*
Y1943300D01*
X6743900Y1892700D01*
Y1794080D01*
X6759100Y1778880D01*
Y1774960D01*
X6794500Y1739560D01*
Y508000D01*
X6667500Y381000D01*
X2984500D01*
X2794000Y571500D01*
G01X3515490Y1333500D02*
X3302000D01*
G01X4699000Y2857500D02*
X4607540D01*
X4529050Y2779010D01*
X4396490D01*
X4318000Y2857500D01*
X3330600D01*
X3189000Y2715900D01*
Y2076480D01*
G01X3109000D02*
Y2132360D01*
X3118800Y2142160D01*
Y2985310D01*
X3123780Y2990290D01*
Y3019340D01*
X3250600Y3146160D01*
X4092840D01*
X4341440Y2897560D01*
Y2892850D01*
X4376840Y2857450D01*
X4500980D01*
X4569460Y2925930D01*
Y3111500D01*
X4447390Y3233570D01*
Y3236110D01*
X4318000Y3365500D01*
G01X3029000Y2177680D02*
X2730500Y2476180D01*
Y3014650D01*
X2725520Y3019630D01*
Y3076370D01*
X2730500Y3081350D01*
Y3238500D01*
X2857500Y3365500D01*
G01X2794000Y3048000D02*
X2984500D01*
G01X4358510Y2364210D02*
Y2240850D01*
X4358560Y2240800D01*
Y2077200D01*
X4358510Y2077150D01*
Y1755010D01*
X3619500Y1016000D01*
G01Y635000D02*
X3515490Y739010D01*
Y972840D01*
X3515440Y972890D01*
Y1059110D01*
X3515490Y1059160D01*
Y1333500D01*
G01X4045140Y2008140D02*
Y1491710D01*
X3886930Y1333500D01*
X3515490D01*
G01X5334000Y571500D02*
X5448150Y685650D01*
Y945250D01*
X5290960Y1102440D01*
X5290890D01*
X5229940Y1163390D01*
Y1249610D01*
X5229990Y1249660D01*
Y1275110D01*
X5265390Y1310510D01*
X5290840D01*
X5290890Y1310560D01*
X5366500D01*
X5448150Y1392210D01*
Y1893100D01*
X5650550Y2095500D01*
X6096000D01*
G01X8290600Y1586650D02*
X7998920D01*
X7998870Y1586600D01*
X7942130D01*
X7942080Y1586650D01*
X7493850D01*
X7068890Y2011610D01*
Y2054940D01*
X7007940Y2115890D01*
Y2115960D01*
X6898560Y2225340D01*
Y2240800D01*
X6876300Y2263060D01*
X6712700D01*
X6690440Y2240800D01*
Y2240720D01*
X6608720Y2159000D01*
X6286500D01*
X6200010Y2072510D01*
Y2026890D01*
X6164610Y1991490D01*
X6118990D01*
X5334000Y1206500D01*
G01X5080000Y2095500D02*
Y2585740D01*
G01X6985000Y1841500D02*
X6918460Y1774960D01*
X6875480D01*
X6875430Y1774910D01*
X6834560D01*
X6794450Y1815020D01*
Y1871760D01*
X6834560Y1911870D01*
X6891300D01*
X6895590Y1907570D01*
X6904150D01*
X6941960Y1945380D01*
X7028040D01*
X7088880Y1884540D01*
Y1798460D01*
X7050390Y1759970D01*
Y1727490D01*
X7325200Y1452680D01*
X7970500D01*
G01X6862930Y1843390D02*
X6890040D01*
X6956630Y1909980D01*
X7013370D01*
X7053480Y1869870D01*
Y1813130D01*
X6999790Y1759440D01*
Y1706530D01*
X7448410Y1257910D01*
X7949590D01*
X8445500Y762000D01*
Y635000D01*
G01X7175500Y2730500D02*
Y2465410D01*
X7226100D01*
Y2042100D01*
G01X7429500Y698500D02*
Y1189480D01*
G01X7493000Y1778000D02*
X7419400Y1851600D01*
Y2042100D01*
G01X8128000Y2476500D02*
X8350740D01*
Y1775000D01*
X8968530D01*
G01X8128000Y3062790D02*
Y3492500D01*
G01X9588500Y2921000D02*
Y2349500D01*
X9461500Y2222500D01*
G54D16*
G01X825500Y1059140D02*
Y1143000D01*
G01D02*
Y1274450D01*
G01Y1790850D02*
X577890Y2038450D01*
X458050D01*
X387450Y2109050D01*
Y2228900D01*
X381000Y2235350D01*
Y2540000D01*
G01X825500Y1790850D02*
X1028170Y1993520D01*
X1689480D01*
G01X825500Y1274450D02*
X744700Y1355250D01*
X569490Y1530450D01*
X458050D01*
X387450Y1601050D01*
Y1700950D01*
X458050Y1771550D01*
X806200D01*
X825500Y1790850D01*
G01X741640Y1143000D02*
X825500D01*
G01D02*
X909360D01*
G01X381000Y2540000D02*
X508000Y2667000D01*
G01Y2573000D02*
Y2667000D01*
G01X762000Y3218140D02*
Y3302000D01*
G01D02*
Y3385860D01*
G01X678140Y3302000D02*
X762000D01*
G01D02*
X845860D01*
G01X508000Y2667000D02*
X602000D01*
G01X1778000Y1821140D02*
Y1905000D01*
G01X1689480Y1993520D02*
X1778000Y1905000D01*
G01D02*
Y1988860D01*
G01X1694140Y1905000D02*
X1778000D01*
G01D02*
X1861860D01*
G01X2541520Y2631370D02*
Y1778000D01*
X2857500D01*
G01X3302000Y1587500D02*
Y1778000D01*
G01D02*
X2857500D01*
G01X3302000D02*
X3238500Y1841500D01*
Y2020150D01*
X3263830Y2045480D01*
Y2107480D01*
X3238500Y2132810D01*
Y2495480D01*
X3302000Y2558980D01*
G01X3208000Y1587500D02*
X3302000D01*
G01X3492500Y2159000D02*
X3482300Y2169200D01*
X3479820D01*
X3441720Y2131100D01*
Y2003900D01*
X3477120Y1968500D01*
X3899670D01*
X4014140Y2082970D01*
X4074460D01*
X4150490Y2159000D01*
X4254500D01*
G01X4508500D02*
Y1587500D01*
G01Y2159000D02*
Y2242860D01*
G01X4424640Y2159000D02*
X4508500D01*
G01D02*
X4592360D01*
G01X6350000Y477500D02*
Y571500D01*
G01D02*
Y665500D01*
G01X6256000Y571500D02*
X6350000D01*
G01D02*
X6444000D01*
G01X7493000Y2834510D02*
X7470010Y2857500D01*
X6286500D01*
X6159500Y2730500D01*
G01X7683500Y614640D02*
Y698500D01*
G01D02*
Y782360D01*
G01X7599640Y698500D02*
X7683500D01*
G01D02*
X7767360D01*
G01X8198930Y1655080D02*
X7970500D01*
G01X7493000Y2834510D02*
Y2072510D01*
X7628590Y1936920D01*
X8130500D01*
G01X7747000Y2674430D02*
X8198930Y2222500D01*
Y1974320D01*
X8205330Y1967920D01*
Y1905920D01*
X8198930Y1899520D01*
Y1655080D01*
G01X7493000Y3238500D02*
Y2834510D01*
G01X7747000Y3238500D02*
Y2674430D01*
G01Y3238500D02*
Y3322360D01*
G01X7663140Y3238500D02*
X7747000D01*
G01D02*
X7830860D01*
G01X8699500Y635000D02*
Y1326180D01*
G01Y551140D02*
Y635000D01*
G01X8615640D02*
X8699500D01*
G01D02*
X8783360D01*
G01X8370600Y1655080D02*
X8326580Y1699100D01*
X8242950D01*
X8198930Y1655080D01*
G01X8699500Y1326180D02*
X8370600Y1655080D01*
G01X9398000Y3492500D02*
X9207500Y3302000D01*
Y952500D01*
X9398000Y762000D01*
G01X9655880Y508000D02*
X9398000D01*
G01Y424140D02*
Y508000D01*
G01D02*
Y591860D01*
G01X9314140Y508000D02*
X9398000D01*
G01X9909880Y762000D02*
X9779000Y892880D01*
Y1445690D01*
X9909880Y1576570D01*
Y1999200D01*
X9842500D01*
G01X10350500Y762000D02*
X9909880D01*
G01D02*
X9655880Y508000D01*
G01X9842500Y1999200D02*
Y2921000D01*
G01D02*
Y3004860D01*
G01X9758640Y2921000D02*
X9842500D01*
G01D02*
X9926360D01*
G01X10350500Y678140D02*
Y762000D01*
G01D02*
Y845860D01*
G01Y762000D02*
X10434360D01*
M02*
